<svg xmlns="http://www.w3.org/2000/svg" xmlns:xlink="http://www.w3.org/1999/xlink" aria-hidden="true" role="img" class="iconify iconify--logos" width="31.88" height="32" preserveAspectRatio="xMidYMid meet" viewBox="0 0 256 257"><defs><linearGradient id="IconifyId1813088fe1fbc01fb466" x1="-.828%" x2="57.636%" y1="7.652%" y2="78.411%"><stop offset="0%" stop-color="#41D1FF"></stop><stop offset="100%" stop-color="#BD34FE"></stop></linearGradient><linearGradient id="IconifyId1813088fe1fbc01fb467" x1="43.376%" x2="50.316%" y1="2.242%" y2="89.03%"><stop offset="0%" stop-color="#FFEA83"></stop><stop offset="8.333%" stop-color="#FFDD35"></stop><stop offset="100%" stop-color="#FFA800"></stop></linearGradient></defs><path fill="url(#IconifyId1813088fe1fbc01fb466)" d="M255.153 37.342c-2.034-14.753-15.52-24.995-29.993-22.903L3.255 59.153c-14.473 2.092-24.715 15.579-22.623 30.052l24.624 169.323c2.092 14.473 15.579 24.715 30.052 22.623l221.904-32.184c14.473-2.092 24.715-15.579 22.623-30.052L255.153 37.342z"></path><path fill="url(#IconifyId1813088fe1fbc01fb467)" d="M185.462.083L27.34 22.445c-13.452 1.95-23.35 14.21-21.4 27.663l9.35 64.353c1.95 13.452 14.21 23.35 27.663 21.4l158.12-22.94c13.452-1.95 23.35-14.21 21.4-27.663l-9.35-64.353c-1.95-13.453-14.21-23.35-27.663-21.4z"></path></svg>
